<svg width="232" height="52" viewBox="0 0 232 52" fill="none" xmlns="http://www.w3.org/2000/svg">
    <path
        d="M15.5 15.8C15.5 14.2536 16.7536 13 18.3 13H23.9C25.4464 13 26.7 14.2536 26.7 15.8V21.4C26.7 22.9464 25.4464 24.2 23.9 24.2H18.3C16.7536 24.2 15.5 22.9464 15.5 21.4V15.8Z"
        fill="#3599BF" />
    <path
        d="M30.1992 29.8C30.1992 28.2536 31.4528 27 32.9992 27H38.5992C40.1456 27 41.3992 28.2536 41.3992 29.8V35.4C41.3992 36.9464 40.1456 38.2 38.5992 38.2H32.9992C31.4528 38.2 30.1992 36.9464 30.1992 35.4V29.8Z"
        fill="#3599BF" />
    <path
        d="M1.5 18.6C1.5 15.5072 4.00721 13 7.1 13C10.1928 13 12.7 15.5072 12.7 18.6C12.7 21.6928 10.1928 24.2 7.1 24.2C4.00721 24.2 1.5 21.6928 1.5 18.6Z"
        fill="#267696" />
    <path
        d="M30.1992 18.6C30.1992 15.5072 32.7064 13 35.7992 13C38.892 13 41.3992 15.5072 41.3992 18.6C41.3992 21.6928 38.892 24.2 35.7992 24.2C32.7064 24.2 30.1992 21.6928 30.1992 18.6Z"
        fill="#CDD5DF" />
    <path
        d="M15.5 32.6C15.5 29.5072 18.0072 27 21.1 27C24.1928 27 26.7 29.5072 26.7 32.6C26.7 35.6928 24.1928 38.2 21.1 38.2C18.0072 38.2 15.5 35.6928 15.5 32.6Z"
        fill="#CDD5DF" />
    <path
        d="M58.6037 25.928H61.5317C61.9637 25.928 62.3797 25.896 62.7797 25.832C63.1797 25.768 63.5317 25.648 63.8357 25.472C64.1397 25.28 64.3797 25.016 64.5557 24.68C64.7477 24.344 64.8437 23.904 64.8437 23.36C64.8437 22.816 64.7477 22.376 64.5557 22.04C64.3797 21.704 64.1397 21.448 63.8357 21.272C63.5317 21.08 63.1797 20.952 62.7797 20.888C62.3797 20.824 61.9637 20.792 61.5317 20.792H58.6037V25.928ZM54.8357 17.864H62.5637C63.6357 17.864 64.5477 18.024 65.2997 18.344C66.0517 18.648 66.6597 19.056 67.1237 19.568C67.6037 20.08 67.9477 20.664 68.1557 21.32C68.3797 21.976 68.4917 22.656 68.4917 23.36C68.4917 24.048 68.3797 24.728 68.1557 25.4C67.9477 26.056 67.6037 26.64 67.1237 27.152C66.6597 27.664 66.0517 28.08 65.2997 28.4C64.5477 28.704 63.6357 28.856 62.5637 28.856H58.6037V35H54.8357V17.864ZM74.6115 25.616H78.7395C79.6035 25.616 80.2515 25.424 80.6835 25.04C81.1155 24.656 81.3315 24.032 81.3315 23.168C81.3315 22.336 81.1155 21.736 80.6835 21.368C80.2515 20.984 79.6035 20.792 78.7395 20.792H74.6115V25.616ZM70.8435 17.864H80.0835C80.8515 17.864 81.5395 17.992 82.1475 18.248C82.7715 18.488 83.2995 18.824 83.7315 19.256C84.1795 19.688 84.5155 20.192 84.7395 20.768C84.9795 21.328 85.0995 21.936 85.0995 22.592C85.0995 23.6 84.8835 24.472 84.4515 25.208C84.0355 25.944 83.3475 26.504 82.3875 26.888V26.936C82.8515 27.064 83.2355 27.264 83.5395 27.536C83.8435 27.792 84.0915 28.104 84.2835 28.472C84.4755 28.824 84.6115 29.216 84.6915 29.648C84.7875 30.08 84.8515 30.512 84.8835 30.944C84.8995 31.216 84.9155 31.536 84.9315 31.904C84.9475 32.272 84.9715 32.648 85.0035 33.032C85.0515 33.416 85.1155 33.784 85.1955 34.136C85.2915 34.472 85.4275 34.76 85.6035 35H81.8355C81.6275 34.456 81.4995 33.808 81.4515 33.056C81.4035 32.304 81.3315 31.584 81.2355 30.896C81.1075 30 80.8355 29.344 80.4195 28.928C80.0035 28.512 79.3235 28.304 78.3795 28.304H74.6115V35H70.8435V17.864ZM90.2758 17.96C90.7238 18.008 91.2278 18.048 91.7878 18.08C92.3478 18.096 92.8278 18.104 93.2278 18.104H105.324C105.676 18.104 106.06 18.104 106.476 18.104C106.908 18.088 107.228 18.072 107.436 18.056C107.42 18.328 107.404 18.68 107.388 19.112C107.372 19.528 107.364 19.912 107.364 20.264V32.696C107.364 33.112 107.372 33.6 107.388 34.16C107.42 34.72 107.444 35.176 107.46 35.528H103.98C103.996 35.176 104.004 34.792 104.004 34.376C104.02 33.944 104.028 33.512 104.028 33.08V21.2H93.2518C92.7398 21.2 92.1958 21.208 91.6198 21.224C91.0598 21.24 90.6118 21.264 90.2758 21.296V17.96ZM89.9638 30.992C90.3798 31.024 90.8438 31.056 91.3558 31.088C91.8838 31.12 92.4198 31.136 92.9638 31.136H105.924V34.28H93.0598C92.5958 34.28 92.0598 34.296 91.4518 34.328C90.8598 34.36 90.3638 34.392 89.9638 34.424V30.992ZM122.628 20.744C122.74 21 122.884 21.368 123.06 21.848C123.252 22.312 123.452 22.816 123.66 23.36C123.868 23.888 124.052 24.392 124.212 24.872C124.372 25.352 124.5 25.728 124.596 26L121.716 27.008C121.652 26.704 121.54 26.32 121.38 25.856C121.22 25.392 121.044 24.904 120.852 24.392C120.66 23.864 120.468 23.36 120.276 22.88C120.084 22.4 119.916 22 119.772 21.68L122.628 20.744ZM131.484 22.496C131.356 22.88 131.244 23.208 131.148 23.48C131.068 23.752 130.988 24.008 130.908 24.248C130.604 25.464 130.188 26.68 129.66 27.896C129.132 29.096 128.46 30.224 127.644 31.28C126.524 32.72 125.252 33.944 123.828 34.952C122.42 35.944 121.012 36.704 119.604 37.232L117.084 34.664C117.964 34.424 118.892 34.072 119.868 33.608C120.844 33.128 121.788 32.552 122.7 31.88C123.612 31.208 124.396 30.464 125.052 29.648C125.596 28.96 126.076 28.176 126.492 27.296C126.924 26.4 127.276 25.448 127.548 24.44C127.836 23.416 128.028 22.408 128.124 21.416L131.484 22.496ZM117.06 22.016C117.22 22.32 117.396 22.712 117.588 23.192C117.796 23.672 118.004 24.176 118.212 24.704C118.42 25.232 118.62 25.744 118.812 26.24C119.02 26.736 119.18 27.152 119.292 27.488L116.364 28.592C116.268 28.272 116.124 27.856 115.932 27.344C115.756 26.832 115.556 26.296 115.332 25.736C115.108 25.16 114.892 24.632 114.684 24.152C114.492 23.672 114.324 23.304 114.18 23.048L117.06 22.016ZM156.084 20.072C155.956 20.296 155.82 20.568 155.676 20.888C155.532 21.192 155.404 21.496 155.292 21.8C155.084 22.504 154.788 23.312 154.404 24.224C154.036 25.12 153.572 26.056 153.012 27.032C152.468 27.992 151.836 28.92 151.116 29.816C149.964 31.192 148.62 32.44 147.084 33.56C145.564 34.68 143.676 35.688 141.42 36.584L138.588 34.04C140.22 33.56 141.628 33.008 142.812 32.384C143.996 31.76 145.028 31.096 145.908 30.392C146.788 29.672 147.572 28.912 148.26 28.112C148.82 27.488 149.332 26.784 149.796 26C150.26 25.2 150.66 24.408 150.996 23.624C151.332 22.84 151.556 22.152 151.668 21.56H143.58L144.684 18.848C144.908 18.848 145.252 18.848 145.716 18.848C146.196 18.848 146.732 18.848 147.324 18.848C147.932 18.848 148.524 18.848 149.1 18.848C149.692 18.848 150.204 18.848 150.636 18.848C151.084 18.848 151.388 18.848 151.548 18.848C151.916 18.848 152.284 18.824 152.652 18.776C153.036 18.728 153.364 18.656 153.636 18.56L156.084 20.072ZM148.26 16.28C147.972 16.696 147.692 17.144 147.42 17.624C147.148 18.104 146.94 18.472 146.796 18.728C146.252 19.688 145.58 20.688 144.78 21.728C143.996 22.752 143.1 23.752 142.092 24.728C141.084 25.688 140.012 26.568 138.876 27.368L136.164 25.376C137.22 24.72 138.148 24.048 138.948 23.36C139.764 22.672 140.468 21.992 141.06 21.32C141.652 20.632 142.156 19.976 142.572 19.352C143.004 18.712 143.372 18.144 143.676 17.648C143.868 17.344 144.068 16.952 144.276 16.472C144.484 15.976 144.644 15.528 144.756 15.128L148.26 16.28ZM177.084 17.96C177.084 18.344 177.212 18.672 177.468 18.944C177.74 19.216 178.068 19.352 178.452 19.352C178.836 19.352 179.164 19.216 179.436 18.944C179.708 18.672 179.844 18.344 179.844 17.96C179.844 17.576 179.708 17.248 179.436 16.976C179.164 16.704 178.836 16.568 178.452 16.568C178.068 16.568 177.74 16.704 177.468 16.976C177.212 17.248 177.084 17.576 177.084 17.96ZM175.596 17.96C175.596 17.432 175.724 16.952 175.98 16.52C176.236 16.088 176.58 15.744 177.012 15.488C177.444 15.216 177.924 15.08 178.452 15.08C178.98 15.08 179.46 15.216 179.892 15.488C180.324 15.744 180.668 16.088 180.924 16.52C181.196 16.952 181.332 17.432 181.332 17.96C181.332 18.488 181.196 18.968 180.924 19.4C180.668 19.832 180.324 20.184 179.892 20.456C179.46 20.712 178.98 20.84 178.452 20.84C177.924 20.84 177.444 20.712 177.012 20.456C176.58 20.184 176.236 19.832 175.98 19.4C175.724 18.968 175.596 18.488 175.596 17.96ZM165.876 16.592C165.812 16.96 165.764 17.384 165.732 17.864C165.7 18.344 165.684 18.752 165.684 19.088C165.684 19.328 165.684 19.752 165.684 20.36C165.684 20.952 165.684 21.656 165.684 22.472C165.684 23.288 165.684 24.144 165.684 25.04C165.684 25.92 165.684 26.776 165.684 27.608C165.684 28.424 165.684 29.152 165.684 29.792C165.684 30.432 165.684 30.904 165.684 31.208C165.684 31.72 165.812 32.072 166.068 32.264C166.324 32.456 166.716 32.608 167.244 32.72C167.612 32.768 168.036 32.808 168.516 32.84C168.996 32.856 169.5 32.864 170.028 32.864C170.652 32.864 171.34 32.848 172.092 32.816C172.86 32.768 173.628 32.712 174.396 32.648C175.18 32.584 175.916 32.496 176.604 32.384C177.292 32.272 177.884 32.152 178.38 32.024V35.528C177.628 35.64 176.756 35.728 175.764 35.792C174.772 35.872 173.756 35.928 172.716 35.96C171.692 36.008 170.732 36.032 169.836 36.032C169.052 36.032 168.308 36.008 167.604 35.96C166.916 35.912 166.316 35.848 165.804 35.768C164.764 35.56 163.956 35.168 163.38 34.592C162.804 34 162.516 33.192 162.516 32.168C162.516 31.704 162.516 31.104 162.516 30.368C162.516 29.616 162.516 28.792 162.516 27.896C162.516 26.984 162.516 26.072 162.516 25.16C162.516 24.232 162.516 23.36 162.516 22.544C162.516 21.712 162.516 20.992 162.516 20.384C162.516 19.776 162.516 19.344 162.516 19.088C162.516 18.912 162.508 18.672 162.492 18.368C162.476 18.064 162.452 17.752 162.42 17.432C162.404 17.112 162.372 16.832 162.324 16.592H165.876ZM164.292 23.96C165.06 23.8 165.876 23.608 166.74 23.384C167.604 23.144 168.476 22.888 169.356 22.616C170.236 22.344 171.068 22.072 171.852 21.8C172.652 21.512 173.364 21.232 173.988 20.96C174.42 20.8 174.844 20.616 175.26 20.408C175.692 20.2 176.14 19.952 176.604 19.664L177.9 22.712C177.436 22.888 176.948 23.088 176.436 23.312C175.94 23.52 175.492 23.696 175.092 23.84C174.388 24.112 173.58 24.4 172.668 24.704C171.772 25.008 170.836 25.312 169.86 25.616C168.884 25.904 167.916 26.176 166.956 26.432C166.012 26.688 165.132 26.912 164.316 27.104L164.292 23.96ZM194.628 20.744C194.74 21 194.884 21.368 195.06 21.848C195.252 22.312 195.452 22.816 195.66 23.36C195.868 23.888 196.052 24.392 196.212 24.872C196.372 25.352 196.5 25.728 196.596 26L193.716 27.008C193.652 26.704 193.54 26.32 193.38 25.856C193.22 25.392 193.044 24.904 192.852 24.392C192.66 23.864 192.468 23.36 192.276 22.88C192.084 22.4 191.916 22 191.772 21.68L194.628 20.744ZM203.484 22.496C203.356 22.88 203.244 23.208 203.148 23.48C203.068 23.752 202.988 24.008 202.908 24.248C202.604 25.464 202.188 26.68 201.66 27.896C201.132 29.096 200.46 30.224 199.644 31.28C198.524 32.72 197.252 33.944 195.828 34.952C194.42 35.944 193.012 36.704 191.604 37.232L189.084 34.664C189.964 34.424 190.892 34.072 191.868 33.608C192.844 33.128 193.788 32.552 194.7 31.88C195.612 31.208 196.396 30.464 197.052 29.648C197.596 28.96 198.076 28.176 198.492 27.296C198.924 26.4 199.276 25.448 199.548 24.44C199.836 23.416 200.028 22.408 200.124 21.416L203.484 22.496ZM189.06 22.016C189.22 22.32 189.396 22.712 189.588 23.192C189.796 23.672 190.004 24.176 190.212 24.704C190.42 25.232 190.62 25.744 190.812 26.24C191.02 26.736 191.18 27.152 191.292 27.488L188.364 28.592C188.268 28.272 188.124 27.856 187.932 27.344C187.756 26.832 187.556 26.296 187.332 25.736C187.108 25.16 186.892 24.632 186.684 24.152C186.492 23.672 186.324 23.304 186.18 23.048L189.06 22.016ZM214.044 32.696C214.044 32.392 214.044 31.896 214.044 31.208C214.044 30.504 214.044 29.696 214.044 28.784C214.044 27.856 214.044 26.888 214.044 25.88C214.044 24.872 214.044 23.904 214.044 22.976C214.044 22.032 214.044 21.2 214.044 20.48C214.044 19.76 214.044 19.232 214.044 18.896C214.044 18.48 214.02 18 213.972 17.456C213.94 16.912 213.884 16.432 213.804 16.016H217.548C217.5 16.432 217.452 16.896 217.404 17.408C217.356 17.904 217.332 18.4 217.332 18.896C217.332 19.344 217.332 19.952 217.332 20.72C217.332 21.488 217.332 22.344 217.332 23.288C217.332 24.216 217.332 25.168 217.332 26.144C217.332 27.104 217.332 28.032 217.332 28.928C217.332 29.824 217.332 30.608 217.332 31.28C217.332 31.936 217.332 32.408 217.332 32.696C217.332 32.92 217.34 33.24 217.356 33.656C217.372 34.056 217.404 34.472 217.452 34.904C217.5 35.336 217.532 35.72 217.548 36.056H213.804C213.868 35.576 213.924 35.016 213.972 34.376C214.02 33.736 214.044 33.176 214.044 32.696ZM216.612 22.232C217.412 22.44 218.308 22.712 219.3 23.048C220.292 23.368 221.292 23.712 222.3 24.08C223.308 24.448 224.252 24.816 225.132 25.184C226.028 25.536 226.772 25.864 227.364 26.168L225.996 29.48C225.324 29.128 224.58 28.776 223.764 28.424C222.948 28.056 222.116 27.704 221.268 27.368C220.436 27.032 219.612 26.72 218.796 26.432C217.996 26.144 217.268 25.888 216.612 25.664V22.232Z"
        fill="#08121A" fill-opacity="0.72" />
</svg>